<svg width="1461" height="258" viewBox="0 0 1461 258" fill="none" xmlns="http://www.w3.org/2000/svg">
<path d="M0 152.67C0 123.697 10.25 99.0971 30.75 78.8704C50.9767 58.3704 75.5767 48.1204 104.55 48.1204C143.637 48.1204 173.567 65.0671 194.34 98.9604L132.43 98.5504C114.663 70.9437 96.4867 57.1404 77.9 57.1404C67.24 57.1404 58.9033 62.0604 52.89 71.9004C47.6967 80.9204 45.1 92.5371 45.1 106.75C45.1 137.637 54.12 168.524 72.16 199.41C90.7467 231.664 110.563 247.79 131.61 247.79C142.817 247.79 151.29 242.324 157.03 231.39C162.223 221.55 164.547 208.704 164 192.85H200.9C192.7 212.257 179.853 227.837 162.36 239.59C144.867 251.344 125.597 257.22 104.55 257.22C75.85 257.22 51.25 246.97 30.75 226.47C10.25 205.97 0 181.37 0 152.67Z" fill="white"/>
<path d="M215.41 152.67C215.41 123.97 225.523 99.3704 245.75 78.8704C266.25 58.3704 290.85 48.1204 319.55 48.1204C348.524 48.1204 373.26 58.3704 393.76 78.8704C413.987 99.3704 424.1 123.97 424.1 152.67C424.1 181.644 413.987 206.244 393.76 226.47C373.26 246.97 348.524 257.22 319.55 257.22C290.577 257.22 265.977 246.97 245.75 226.47C225.523 206.244 215.41 181.644 215.41 152.67ZM260.1 106.75C260.1 140.097 269.803 172.214 289.21 203.1C308.07 233.167 326.93 248.2 345.79 248.2C367.93 248.2 379 231.664 379 198.59C379 165.244 369.297 133.127 349.89 102.24C331.03 72.1737 312.17 57.1404 293.31 57.1404C271.17 57.1404 260.1 73.6771 260.1 106.75Z" fill="white"/>
<path d="M631.442 230.16L653.582 255.17H556.002L578.142 230.16V107.98C578.142 97.5937 574.725 88.7104 567.892 81.3304C561.058 74.2237 552.995 70.6704 543.702 70.6704C531.948 70.6704 521.152 76.0004 511.312 86.6604V230.16L533.452 255.17H435.872L458.012 230.16V92.8104L435.872 78.0504L511.312 50.1704V81.7404C532.632 59.8737 554.498 48.9404 576.912 48.9404C592.765 48.9404 605.885 54.5437 616.272 65.7504C626.385 76.9571 631.442 90.8971 631.442 107.57V230.16Z" fill="white"/>
<path d="M761.572 253.94C756.652 255.854 751.458 256.81 745.992 256.81C696.518 256.81 671.782 230.024 671.782 176.45V53.4504H646.362L725.082 0.150391V50.1704H761.162V53.4504H725.082V195.72C725.082 234.807 737.245 253.667 761.572 252.3V253.94Z" fill="white"/>
<path d="M757.433 185.47C757.433 165.244 764.677 148.16 779.163 134.22C793.103 120.827 810.187 114.13 830.413 114.13C847.633 114.13 861.71 119.324 872.643 129.71C857.337 107.57 838.067 96.5004 814.833 96.5004H784.083C791.737 82.2871 804.173 70.6704 821.393 61.6504C838.34 52.6304 856.107 48.1204 874.693 48.1204C894.92 48.1204 911.457 52.4937 924.303 61.2404C938.79 71.0804 946.033 85.4304 946.033 104.29V230.16L968.173 255.17H892.733V205.15C880.707 239.317 858.43 256.4 825.903 256.4C806.77 256.4 790.507 249.567 777.113 235.9C763.993 222.234 757.433 205.424 757.433 185.47ZM836.973 96.9104C864.853 107.57 883.44 130.53 892.733 165.79V84.2004C892.733 63.4271 886.31 53.0404 873.463 53.0404C855.97 53.0404 843.807 67.6637 836.973 96.9104ZM806.633 163.74C806.633 180.414 811.69 195.857 821.803 210.07C832.463 224.83 844.49 232.21 857.883 232.21C868.817 232.21 877.427 227.29 883.713 217.45C889.18 208.977 891.913 198.454 891.913 185.88C891.913 170.027 887.13 154.994 877.563 140.78C867.177 125.747 854.877 118.23 840.663 118.23C830.277 118.23 821.94 122.877 815.653 132.17C809.64 140.917 806.633 151.44 806.633 163.74Z" fill="white"/>
<path d="M977.354 152.67C977.354 123.697 987.604 99.0971 1008.1 78.8704C1028.33 58.3704 1052.93 48.1204 1081.9 48.1204C1120.99 48.1204 1150.92 65.0671 1171.69 98.9604L1109.78 98.5504C1092.02 70.9437 1073.84 57.1404 1055.25 57.1404C1044.59 57.1404 1036.26 62.0604 1030.24 71.9004C1025.05 80.9204 1022.45 92.5371 1022.45 106.75C1022.45 137.637 1031.47 168.524 1049.51 199.41C1068.1 231.664 1087.92 247.79 1108.96 247.79C1120.17 247.79 1128.64 242.324 1134.38 231.39C1139.58 221.55 1141.9 208.704 1141.35 192.85H1178.25C1170.05 212.257 1157.21 227.837 1139.71 239.59C1122.22 251.344 1102.95 257.22 1081.9 257.22C1053.2 257.22 1028.6 246.97 1008.1 226.47C987.604 205.97 977.354 181.37 977.354 152.67Z" fill="white"/>
<path d="M1295.29 253.94C1290.37 255.854 1285.18 256.81 1279.71 256.81C1230.24 256.81 1205.5 230.024 1205.5 176.45V53.4504H1180.08L1258.8 0.150391V50.1704H1294.88V53.4504H1258.8V195.72C1258.8 234.807 1270.97 253.667 1295.29 252.3V253.94Z" fill="white"/>
<path d="M1406.16 133.81C1442.52 152.944 1460.69 173.717 1460.69 196.13C1460.69 213.35 1453.45 227.7 1438.96 239.18C1425.3 249.84 1408.62 255.17 1388.94 255.17H1311.04L1304.07 187.93L1373.36 250.25C1378.28 251.07 1383.48 251.48 1388.94 251.48C1400.97 251.48 1410.95 249.294 1418.87 244.92C1427.35 240.547 1431.58 234.807 1431.58 227.7C1431.58 218.134 1423.66 208.02 1407.8 197.36C1408.35 197.907 1393.86 189.844 1364.34 173.17L1345.07 162.51C1316.1 146.384 1301.61 126.704 1301.61 103.47C1301.61 87.6171 1308.04 74.6337 1320.88 64.5204C1333.18 54.9537 1348.22 50.1704 1365.98 50.1704H1438.14L1446.34 114.13L1384.02 55.5004C1379.1 54.4071 1373.09 53.8604 1365.98 53.8604C1340.84 53.8604 1328.26 60.4204 1328.26 73.5404C1328.26 82.2871 1333.18 90.4871 1343.02 98.1404C1349.31 103.06 1362.02 110.577 1381.15 120.69L1406.16 133.81Z" fill="white"/>
</svg>
