<svg xmlns="http://www.w3.org/2000/svg" version="1.1" xmlns:xlink="http://www.w3.org/1999/xlink" xmlns:svgjs="http://svgjs.com/svgjs" width="21" height="22"><svg width="21" height="22" viewBox="0 0 21 22" fill="none" xmlns="http://www.w3.org/2000/svg">
<path d="M17.0312 9.66708C18.9522 9.66708 20.5096 8.10972 20.5096 6.18863C20.5096 4.26754 18.9522 2.71021 17.0312 2.71021C15.1101 2.71021 13.5527 4.26754 13.5527 6.18863C13.5527 8.10972 15.1101 9.66708 17.0312 9.66708Z" fill="white"></path>
<path d="M11.9965 21.1635C11.206 21.1814 10.4158 21.1182 9.63822 20.9749C7.50268 20.5737 5.51949 19.5903 3.90761 18.1331C2.63358 17.0163 1.66738 15.5913 1.10131 13.9944C0.587678 12.4277 0.478145 10.7567 0.782918 9.13635C0.979996 7.91941 1.3785 6.74385 1.96205 5.65793C2.44656 4.78897 3.05421 3.99465 3.76612 3.29966C5.33475 1.8112 7.30764 0.818586 9.43775 0.446143C11.6589 -0.0365316 13.9675 0.0691574 16.1353 0.752729C16.5938 0.915037 17.0392 1.11213 17.4676 1.3423C17.5177 1.3746 17.5598 1.41799 17.5904 1.4691C17.6211 1.52021 17.6396 1.57768 17.6445 1.63708C17.6445 1.73141 17.4912 1.88469 17.4087 1.88469C17.1226 1.8948 16.8366 1.86303 16.5597 1.79037C13.4586 0.858856 11.6073 1.4838 10.1334 3.74774C9.21397 5.15196 8.70737 6.78619 8.67132 8.46427C8.67132 10.0325 8.57699 11.6243 8.67132 13.1808C8.78112 15.1959 9.61918 17.1025 11.0296 18.5458C11.4715 18.9983 12.0056 19.3504 12.5956 19.5783C13.1856 19.8061 13.8177 19.9044 14.4491 19.8665C15.7783 19.9611 17.1024 19.6218 18.2223 18.8996C18.6129 18.5639 18.9757 18.1972 19.3071 17.803C19.3779 17.7204 19.425 17.6143 19.4958 17.52C19.5665 17.4257 19.991 17.1073 20.2858 17.3313C20.5806 17.5554 20.3683 17.8384 20.1915 18.0388C19.491 18.8654 18.6384 19.5499 17.6799 20.0551C15.9148 20.9147 13.9553 21.2969 11.9965 21.1635Z" fill="white"></path>
</svg><style>@media (prefers-color-scheme: light) { :root { filter: none; } }
</style></svg>