<svg width="134" height="32" viewBox="0 0 134 32" fill="none" xmlns="http://www.w3.org/2000/svg">
<path d="M107.077 19.2074C108.998 19.2074 110.556 17.65 110.556 15.7289C110.556 13.8078 108.998 12.2505 107.077 12.2505C105.156 12.2505 103.599 13.8078 103.599 15.7289C103.599 17.65 105.156 19.2074 107.077 19.2074Z" fill="white"/>
<path d="M102.042 30.7038C101.252 30.7217 100.462 30.6585 99.6841 30.5152C97.5486 30.114 95.5654 29.1306 93.9535 27.6734C92.6795 26.5566 91.7133 25.1316 91.1472 23.5347C90.6336 21.968 90.524 20.297 90.8288 18.6767C91.0259 17.4597 91.4244 16.2842 92.0079 15.1982C92.4925 14.3293 93.1001 13.535 93.812 12.84C95.3806 11.3515 97.3535 10.3589 99.4836 9.98645C101.709 9.50442 104.021 9.61009 106.193 10.293C106.647 10.4576 107.088 10.6546 107.514 10.8826C107.564 10.9149 107.606 10.9583 107.636 11.0094C107.667 11.0605 107.686 11.118 107.69 11.1774C107.69 11.2717 107.537 11.425 107.455 11.425C107.169 11.4351 106.882 11.4033 106.606 11.3307C103.505 10.3992 101.653 11.0241 100.179 13.288C99.2599 14.6923 98.7533 16.3265 98.7172 18.0046C98.7172 19.5728 98.6229 21.1647 98.7172 22.7211C98.827 24.7362 99.6651 26.6428 101.075 28.0861C101.517 28.5386 102.052 28.8907 102.642 29.1186C103.232 29.3464 103.864 29.4447 104.495 29.4068C105.824 29.5014 107.148 29.1621 108.268 28.4399C108.659 28.1042 109.022 27.7375 109.353 27.3433C109.424 27.2607 109.471 27.1546 109.542 27.0603C109.612 26.966 110.037 26.6476 110.332 26.8716C110.626 27.0957 110.414 27.3787 110.237 27.5791C109.537 28.4058 108.684 29.0902 107.726 29.5954C105.961 30.455 104.001 30.8372 102.042 30.7038Z" fill="white"/>
<path d="M74.6982 18.2757C76.6193 18.2757 78.1766 16.7184 78.1766 14.7973C78.1766 12.8762 76.6193 11.3188 74.6982 11.3188C72.7771 11.3188 71.2197 12.8762 71.2197 14.7973C71.2197 16.7184 72.7771 18.2757 74.6982 18.2757Z" fill="white"/>
<path d="M129.409 28.6991C131.33 28.6991 132.888 27.1417 132.888 25.2206C132.888 23.2996 131.33 21.7422 129.409 21.7422C127.488 21.7422 125.931 23.2996 125.931 25.2206C125.931 27.1417 127.488 28.6991 129.409 28.6991Z" fill="white"/>
<path d="M83.8837 8.41806C85.8048 8.41806 87.3622 6.86069 87.3622 4.9396C87.3622 3.01851 85.8048 1.46118 83.8837 1.46118C81.9626 1.46118 80.4053 3.01851 80.4053 4.9396C80.4053 6.86069 81.9626 8.41806 83.8837 8.41806Z" fill="white"/>
<path d="M17.3925 19.2074C19.3136 19.2074 20.8709 17.65 20.8709 15.7289C20.8709 13.8078 19.3136 12.2505 17.3925 12.2505C15.4714 12.2505 13.9141 13.8078 13.9141 15.7289C13.9141 17.65 15.4714 19.2074 17.3925 19.2074Z" fill="white"/>
<path d="M39.1356 18.2757C41.0567 18.2757 42.6141 16.7184 42.6141 14.7973C42.6141 12.8762 41.0567 11.3188 39.1356 11.3188C37.2146 11.3188 35.6572 12.8762 35.6572 14.7973C35.6572 16.7184 37.2146 18.2757 39.1356 18.2757Z" fill="white"/>
<path d="M87.8689 20.8465V30.197C87.8689 30.8219 87.6802 31.0341 87.0317 31.0341H80.7351C80.0866 31.0341 79.8862 30.8337 79.8979 30.3031C79.8979 28.1099 79.8979 25.9049 79.9687 23.7117C79.9687 19.97 79.9687 16.2242 79.9687 12.4746C79.9687 11.8261 80.122 11.6374 80.6408 11.5666L85.7582 10.8238C86.1591 10.7649 86.5483 10.6705 86.9374 10.6115C87.6449 10.5054 87.8571 10.7059 87.8571 11.4134C87.8571 13.4415 87.8571 15.4814 87.8571 17.5095C87.8571 18.6297 87.8571 19.738 87.8571 20.8582L87.8689 20.8465Z" fill="white"/>
<path d="M31.3415 15.8351C31.3415 20.1979 31.3415 24.5489 31.3415 28.9117C31.3415 29.1475 31.3415 29.3951 31.3415 29.6309C31.3415 30.3266 31.1646 30.5389 30.4689 30.5271H25.5284C25.1039 30.5271 24.6912 30.5271 24.2667 30.5271C23.5946 30.5271 23.4531 30.3738 23.4531 29.7017C23.4531 26.4001 23.4531 23.1064 23.4531 19.8205C23.4531 14.2315 23.4531 8.6463 23.4531 3.06507C23.4531 2.26326 23.4531 2.2161 24.2549 2.10998L29.8204 1.33175C30.0275 1.29712 30.2323 1.24987 30.4336 1.19026C31.0939 1.01339 31.3297 1.19026 31.3179 1.89774C31.3179 2.28686 31.3179 2.67597 31.3179 3.07688V15.8587L31.3415 15.8351Z" fill="white"/>
<path d="M126.203 19.5611H120.19C119.824 19.5611 119.47 19.5611 119.518 20.0917C119.635 21.4831 119.694 22.8981 119.918 24.2659C120.126 25.6273 120.692 26.9092 121.557 27.9801C122.117 28.666 122.848 29.1912 123.677 29.5019C124.505 29.8126 125.402 29.8978 126.274 29.7488C127.052 29.6663 127.819 29.4187 128.632 29.2772C128.915 29.2772 129.328 29.0649 129.434 29.454C129.54 29.8432 129.151 29.9964 128.845 30.1026C127.875 30.4489 126.871 30.6901 125.85 30.8218C123.405 31.3003 120.873 31.0291 118.586 30.0436C116.667 29.2852 114.985 28.0272 113.716 26.4001C113.01 25.4688 112.468 24.4241 112.113 23.3108C111.691 21.9784 111.554 20.5724 111.712 19.1838C111.871 17.8455 112.292 16.5516 112.95 15.3752C113.424 14.5424 114.002 13.7737 114.671 13.0877C116.608 11.2961 119.057 10.1577 121.675 9.83325C121.758 9.83325 121.982 9.83327 122.1 9.9276C122.133 9.99754 122.151 10.0741 122.151 10.1516C122.151 10.2292 122.133 10.3057 122.1 10.3757C122.041 10.5408 121.939 10.6872 121.805 10.8001C120.878 11.5708 120.273 12.66 120.107 13.8541C119.77 15.3257 119.572 16.826 119.518 18.3348C119.518 18.7004 119.647 18.889 120.001 18.889C121.451 18.889 122.902 18.889 124.364 18.889H125.036C125.649 18.889 125.791 18.8065 125.732 18.1697C125.649 17.1203 125.555 16.0591 125.378 15.0097C125.29 14.0785 125.068 13.165 124.718 12.2977C124.528 11.857 124.256 11.4567 123.916 11.1185C123.832 11.0411 123.753 10.9584 123.68 10.8709C123.491 10.6469 123.255 10.3639 123.338 10.187C123.42 10.0101 123.751 10.0101 123.939 9.99835H124.14C125.299 10.1103 126.427 10.4382 127.465 10.9652C129.623 11.9798 131.335 13.7501 132.276 15.9412C132.604 16.9081 132.845 17.9026 132.995 18.9126C133.022 18.9944 133.031 19.0812 133.021 19.1667C133.01 19.2523 132.982 19.3346 132.936 19.4078C132.771 19.6319 132.405 19.6083 132.288 19.6083C131.615 19.5611 129.34 19.5611 126.203 19.5611Z" fill="white"/>
<path d="M12.3578 30.7038C11.5673 30.7217 10.7771 30.6585 9.99955 30.5151C7.864 30.114 5.88082 29.1306 4.26894 27.6734C2.99491 26.5566 2.0287 25.1316 1.46263 23.5347C0.949006 21.968 0.839473 20.2969 1.14425 18.6766C1.34132 17.4597 1.73983 16.2841 2.32338 15.1982C2.80789 14.3292 3.41553 13.5349 4.12745 12.8399C5.69607 11.3515 7.66896 10.3589 9.79908 9.98643C12.0202 9.50375 14.3289 9.60944 16.4966 10.293C16.9551 10.4553 17.4005 10.6524 17.829 10.8826C17.8791 10.9149 17.9211 10.9583 17.9517 11.0094C17.9824 11.0605 18.0009 11.118 18.0059 11.1774C18.0059 11.2717 17.8526 11.425 17.77 11.425C17.4839 11.4351 17.1979 11.4033 16.921 11.3307C13.8199 10.3991 11.9687 11.0241 10.4948 13.288C9.5753 14.6922 9.0687 16.3265 9.03265 18.0046C9.03265 19.5728 8.93832 21.1646 9.03265 22.7211C9.14245 24.7362 9.98051 26.6427 11.3909 28.0861C11.8328 28.5386 12.3669 28.8907 12.9569 29.1185C13.547 29.3464 14.1791 29.4447 14.8104 29.4067C16.1396 29.5014 17.4637 29.1621 18.5836 28.4398C18.9742 28.1042 19.337 27.7375 19.6684 27.3433C19.7392 27.2607 19.7863 27.1546 19.8571 27.0603C19.9278 26.966 20.3523 26.6476 20.6471 26.8716C20.9419 27.0957 20.7297 27.3787 20.5528 27.5791C19.8524 28.4057 18.9997 29.0902 18.0412 29.5954C16.2761 30.455 14.3166 30.8372 12.3578 30.7038Z" fill="white"/>
<path d="M55.6192 29.678C55.6371 29.7943 55.6306 29.9131 55.6001 30.0268C55.5697 30.1404 55.5159 30.2465 55.4423 30.3383C55.3527 30.4117 55.2486 30.4653 55.1368 30.4958C55.0251 30.5262 54.9082 30.5329 54.7938 30.5152H48.5916C47.7426 30.5152 47.5775 30.2558 47.6247 29.4186C47.6954 28.0862 47.7308 26.742 47.7308 25.3978C47.7308 21.9626 47.7072 18.5234 47.66 15.0804C47.6696 14.2876 47.4918 13.5039 47.1412 12.7928C46.8233 12.1512 46.3228 11.6179 45.7027 11.26C45.2946 11.0707 44.8619 10.9397 44.4174 10.8708C43.7093 10.7342 42.9919 10.6515 42.2714 10.6232H41.0922C41.0526 10.5006 41.0526 10.3685 41.0922 10.2459C41.2102 9.96291 41.6818 9.65633 44.5707 9.8332C45.4876 9.8618 46.4016 9.95242 47.3063 10.1044C49.1391 10.338 50.8853 11.0227 52.3884 12.0971C52.9973 12.5682 53.5475 13.1105 54.0273 13.7126C54.5324 14.33 54.931 15.0274 55.2065 15.776C55.4352 16.4089 55.5664 17.0729 55.5956 17.7452C55.7135 19.3252 55.7371 23.747 55.6192 29.678Z" fill="white"/>
<path d="M59.1805 29.678C59.1571 29.7934 59.1597 29.9126 59.1883 30.0269C59.2168 30.1411 59.2706 30.2475 59.3456 30.3383C59.4378 30.4114 59.5439 30.4647 59.6574 30.4951C59.771 30.5255 59.8896 30.5324 60.0059 30.5152H66.2081C67.0453 30.5152 67.2222 30.2558 67.175 29.4186C67.1043 28.0862 67.0689 26.742 67.0689 25.3978C67.0689 21.9665 67.0689 18.5234 67.1397 15.0804C67.1241 14.287 67.3022 13.5018 67.6585 12.7928C67.9716 12.1479 68.4733 11.6134 69.097 11.26C69.5047 11.0696 69.9375 10.9386 70.3823 10.8708C71.0903 10.7337 71.8077 10.651 72.5283 10.6232H73.7074C73.7471 10.5006 73.7471 10.3685 73.7074 10.2459C73.5895 9.96291 73.1179 9.65633 70.17 9.8332C69.2531 9.86115 68.3391 9.95177 67.4344 10.1044C65.6016 10.338 63.8555 11.0227 62.3524 12.0971C61.7398 12.568 61.1856 13.1103 60.7016 13.7126C60.2007 14.3329 59.8026 15.0296 59.5225 15.776C59.2961 16.4091 59.1688 17.0733 59.1451 17.7452C59.0744 19.3252 59.0626 23.747 59.1805 29.678Z" fill="white"/>
<path d="M41.3047 30.9042C39.7093 30.9584 38.1324 30.5489 36.765 29.7251C35.9726 29.2682 35.3076 28.6194 34.8312 27.8385C34.3178 26.8116 34.1254 25.654 34.2789 24.5163C34.4324 23.3786 34.9248 22.3134 35.692 21.4594C36.6891 20.4913 37.9623 19.8568 39.3355 19.6435C40.5781 19.4007 41.8429 19.2901 43.1087 19.3133H43.7455C43.7455 19.3133 44.5001 19.3133 45.5849 19.4902L45.8443 19.5492C45.9628 19.5652 46.0766 19.606 46.1782 19.669C46.2798 19.732 46.3669 19.8157 46.4339 19.9147C46.4585 19.9954 46.4585 20.0816 46.4339 20.1623C46.4339 20.5632 46.033 20.5043 45.75 20.5043H44.7831C44.4011 20.5112 44.0269 20.6141 43.6951 20.8037C43.3633 20.9933 43.0846 21.2634 42.8847 21.5891C42.393 22.3185 42.082 23.1545 41.9774 24.028C41.8729 24.9015 41.9777 25.7873 42.2834 26.6122C42.366 27.0753 42.5637 27.5103 42.8583 27.877C43.153 28.2438 43.5351 28.5306 43.9695 28.711C44.2135 28.8158 44.4763 28.8699 44.7418 28.8699C45.0074 28.8699 45.2702 28.8158 45.5142 28.711C45.8325 28.5577 46.2334 28.3101 46.4575 28.711C46.6815 29.1119 46.257 29.3831 45.9387 29.56C44.53 30.3869 42.9371 30.8489 41.3047 30.9042Z" fill="white"/>
<path d="M30.7755 0.930664H24.0545C23.7223 0.930664 23.4531 1.19991 23.4531 1.53203V29.9373C23.4531 30.2695 23.7223 30.5387 24.0545 30.5387H30.7755C31.1077 30.5387 31.3769 30.2695 31.3769 29.9373V1.53203C31.3769 1.19991 31.1077 0.930664 30.7755 0.930664Z" fill="white"/>
<path d="M87.2443 10.5759H80.5232C80.1911 10.5759 79.9219 10.8452 79.9219 11.1773V30.4679C79.9219 30.8 80.1911 31.0693 80.5232 31.0693H87.2443C87.5764 31.0693 87.8456 30.8 87.8456 30.4679V11.1773C87.8456 10.8452 87.5764 10.5759 87.2443 10.5759Z" fill="white"/>
<path d="M122.594 18.9124H125.259C125.624 18.9124 125.766 18.7238 125.742 18.3582C125.688 16.8494 125.49 15.3492 125.153 13.8776C124.993 12.6816 124.386 11.5905 123.455 10.8236C123.321 10.7107 123.219 10.5642 123.16 10.3991C123.127 10.3292 123.109 10.2526 123.109 10.1751C123.109 10.0975 123.127 10.021 123.16 9.95102C123.278 9.82132 123.502 9.85671 123.584 9.85671C126.059 10.1678 128.373 11.2484 130.199 12.946C130.905 13.6354 131.498 14.4312 131.956 15.3043C132.56 16.5111 132.894 17.8349 132.935 19.1837H122.547L122.594 18.9124Z" fill="white"/>
</svg>
