<svg width="650" height="50" viewBox="0 0 650 50" fill="none" xmlns="http://www.w3.org/2000/svg">
<path d="M36.0042 1.77891H0.949219L3.91922 6.00891C7.56422 3.30891 10.3992 2.85891 13.2342 2.85891H13.8192V27.7439C13.8192 32.3789 13.6842 34.5389 13.2792 37.7789H23.6742C23.2692 34.5389 23.1342 32.3789 23.1342 27.7439V2.85891H23.7192C26.5542 2.85891 29.4342 3.30891 33.0342 6.00891L36.0042 1.77891Z" fill="white"/>
<path d="M57.2407 37.7789H66.3757C65.8357 33.2789 65.8357 31.4339 65.8357 28.0589V24.0539C65.8357 17.3039 62.8657 14.8739 58.1857 14.8739C53.3257 14.8739 50.5807 17.4839 48.6907 20.7239V11.8139C48.6907 8.43891 48.6907 6.00891 49.2307 1.77891H40.1407C40.6807 6.00891 40.6807 8.43891 40.6807 11.8139V27.7439C40.6807 31.1189 40.6807 33.5489 40.1407 37.7789H49.2307C48.6907 33.5489 48.6907 31.1189 48.6907 27.7439V22.4789C50.4007 19.0589 52.5157 16.9439 54.9907 16.9439C56.9707 16.9439 57.7807 18.4739 57.7807 21.1289V28.0589C57.7807 31.4339 57.7807 33.2789 57.2407 37.7789Z" fill="white"/>
<path d="M97.4285 37.7789C96.7535 33.6389 96.7535 31.5689 96.7535 28.0589V22.2089C96.7085 16.6289 92.4335 14.8739 86.4935 14.8739C80.8685 14.8739 75.7835 16.8089 72.6335 18.8789C73.3535 22.6589 77.3585 23.2889 79.4285 20.4989C80.7785 18.6539 81.7235 15.9989 85.3685 15.9989C87.5735 15.9989 88.7435 17.2589 88.7435 19.8689C88.7435 22.7939 87.0785 23.8289 83.0735 24.5489C78.9335 25.3139 71.6885 26.6639 71.6885 32.5589C71.6885 37.1939 76.0535 38.6789 79.7885 38.6789C84.7385 38.6789 87.5285 36.6089 88.7885 33.5039C88.8335 34.9889 88.9685 36.1589 89.2835 37.7789H97.4285ZM83.7935 35.9789C81.7685 35.9789 80.4185 34.5839 80.4185 31.2089C80.4185 28.2839 81.8135 26.3939 84.7835 25.3139C86.6285 24.6389 87.9785 24.2339 88.7435 23.2889V29.2739C88.7435 33.0089 86.8535 35.9789 83.7935 35.9789Z" fill="white"/>
<path d="M120.474 37.7789H129.609C129.069 33.2789 129.069 31.4339 129.069 28.0589V24.0539C129.069 17.3039 126.099 14.8739 121.419 14.8739C116.649 14.8739 113.904 17.3939 112.014 20.5889C112.059 19.1939 112.194 17.7089 112.464 15.7739H103.374C103.914 19.9139 103.914 22.0289 103.914 25.3589V28.1939C103.914 31.5689 103.914 33.6389 103.374 37.7789H112.464C111.924 33.6389 111.924 31.5689 111.924 28.1939V22.4339C113.634 19.0589 115.749 16.9439 118.224 16.9439C120.204 16.9439 121.014 18.4739 121.014 21.1289V28.0589C121.014 31.4339 121.014 33.2789 120.474 37.7789Z" fill="white"/>
<path d="M162.128 32.8739C159.698 29.4089 156.863 27.6989 149.393 26.9789C156.053 26.6189 161.768 25.0439 161.768 20.2739C161.768 16.4939 158.753 14.8739 154.973 14.8739C149.393 14.8739 145.838 17.6639 144.398 22.7039V11.8139C144.398 8.43891 144.398 6.00891 144.938 1.77891H135.848C136.388 6.00891 136.388 8.43891 136.388 11.8139V27.7439C136.388 31.1189 136.388 33.5489 135.848 37.7789H144.938C144.443 33.9539 144.398 31.5689 144.398 28.6439C144.398 28.1489 144.398 27.6539 144.443 27.1589C148.673 27.5639 151.103 29.2739 153.533 32.8739C155.063 35.0789 155.603 36.0239 156.278 37.7789H166.043C164.738 36.4289 163.793 35.1689 162.128 32.8739ZM151.238 16.9439C153.173 16.9439 154.298 18.1589 154.298 20.2739C154.298 24.4139 150.428 26.3939 144.488 26.3939C145.073 19.9139 147.863 16.9439 151.238 16.9439Z" fill="white"/>
<path d="M209.688 15.7739C209.463 17.2139 209.283 18.0689 208.698 19.9139L202.938 36.6089L196.503 19.9139C195.918 18.4289 195.558 17.5739 195.288 15.7739H185.523C186.603 17.5289 187.053 18.4739 187.638 20.0039L194.523 37.7789H202.533L202.443 38.0489C200.508 43.7189 197.628 45.1589 195.738 45.1589C193.668 45.1589 192.858 44.0339 191.868 41.7839C190.383 38.2289 185.568 39.5789 186.153 43.2689C188.178 45.3389 191.508 46.2839 194.343 46.2839C198.888 46.2839 201.453 44.2589 203.703 37.7789L209.778 20.0039C210.453 18.1139 210.813 17.2139 211.578 15.7739H209.688Z" fill="white"/>
<path d="M228.776 38.6789C237.281 38.6789 243.896 34.6289 243.896 26.7989C243.896 18.9239 237.281 14.8739 228.776 14.8739C220.271 14.8739 213.656 18.9239 213.656 26.7989C213.656 34.6289 220.271 38.6789 228.776 38.6789ZM228.776 37.5989C224.546 37.5989 222.386 34.1789 222.386 26.7989C222.386 19.4189 224.546 15.9989 228.776 15.9989C233.006 15.9989 235.166 19.4189 235.166 26.7989C235.166 34.1789 233.006 37.5989 228.776 37.5989Z" fill="white"/>
<path d="M266.144 15.7739C266.774 20.3189 266.774 22.1639 266.774 25.4939V28.1939C266.774 29.3189 266.774 30.3089 266.729 31.2539C265.019 34.6289 262.949 36.6089 260.474 36.6089C258.494 36.6089 257.684 35.1239 257.684 32.4689V15.7739H249.044C249.629 20.3189 249.629 22.1639 249.629 25.4939V29.5439C249.629 36.2939 252.599 38.6789 257.279 38.6789C262.049 38.6789 264.794 36.2039 266.684 33.0089C266.594 34.3139 266.459 35.7989 266.189 37.7789H274.784V15.7739H266.144Z" fill="white"/>
<path d="M308.514 0.878906C302.034 0.878906 299.109 3.57891 299.064 14.6489V15.7739H295.014V16.8989H299.064V27.7439C299.064 31.1189 299.064 33.2789 298.524 37.7789H307.659C307.119 33.2789 307.119 31.1189 307.119 27.7439V16.8989H313.644V15.7739H307.119V14.6489C302.529 6.27891 303.114 1.95891 307.074 1.95891C310.224 1.95891 311.079 5.15391 313.464 6.36891C316.254 7.71891 317.874 5.64891 317.874 3.08391C315.084 1.91391 312.204 0.878906 308.514 0.878906Z" fill="white"/>
<path d="M329.844 38.6789C338.349 38.6789 344.964 34.6289 344.964 26.7989C344.964 18.9239 338.349 14.8739 329.844 14.8739C321.339 14.8739 314.724 18.9239 314.724 26.7989C314.724 34.6289 321.339 38.6789 329.844 38.6789ZM329.844 37.5989C325.614 37.5989 323.454 34.1789 323.454 26.7989C323.454 19.4189 325.614 15.9989 329.844 15.9989C334.074 15.9989 336.234 19.4189 336.234 26.7989C336.234 34.1789 334.074 37.5989 329.844 37.5989Z" fill="white"/>
<path d="M371.854 15.7739C364.924 14.3789 361.774 18.4289 358.354 22.8839C358.399 20.7239 358.489 18.7889 358.894 15.7739H349.804C350.344 19.9139 350.344 22.0289 350.344 25.3589V28.1939C350.344 31.5689 350.344 33.6389 349.804 37.7789H358.894C358.354 33.6389 358.354 31.5689 358.354 28.1939V24.5039C362.629 19.5539 364.384 19.4639 367.039 20.2739C370.504 21.3539 372.439 19.2389 371.854 15.7739Z" fill="white"/>
<path d="M433.297 15.7739C430.597 15.5039 427.987 16.3589 428.752 18.7439C429.382 20.6789 432.262 21.8039 430.957 24.6839L425.782 36.4289L418.537 20.0489C417.772 18.2489 417.457 17.2589 417.187 15.7739H407.197C408.277 17.3039 408.907 18.3389 409.672 20.1839L413.182 28.2389L409.582 36.4289L402.382 20.0489C401.572 18.2489 401.257 17.2589 400.987 15.7739H390.997C392.077 17.3039 392.707 18.3389 393.517 20.1839L401.167 37.7789H410.842C410.707 36.5189 411.067 35.7539 411.787 34.1789L413.812 29.6339L417.367 37.7789H427.042C426.907 36.5189 427.267 35.7539 427.987 34.1789L432.982 22.8839C434.107 20.3639 434.062 18.0239 433.297 15.7739Z" fill="white"/>
<path d="M463.075 37.7789C462.4 33.6389 462.4 31.5689 462.4 28.0589V22.2089C462.355 16.6289 458.08 14.8739 452.14 14.8739C446.515 14.8739 441.43 16.8089 438.28 18.8789C439 22.6589 443.005 23.2889 445.075 20.4989C446.425 18.6539 447.37 15.9989 451.015 15.9989C453.22 15.9989 454.39 17.2589 454.39 19.8689C454.39 22.7939 452.725 23.8289 448.72 24.5489C444.58 25.3139 437.335 26.6639 437.335 32.5589C437.335 37.1939 441.7 38.6789 445.435 38.6789C450.385 38.6789 453.175 36.6089 454.435 33.5039C454.48 34.9889 454.615 36.1589 454.93 37.7789H463.075ZM449.44 35.9789C447.415 35.9789 446.065 34.5839 446.065 31.2089C446.065 28.2839 447.46 26.3939 450.43 25.3139C452.275 24.6389 453.625 24.2339 454.39 23.2889V29.2739C454.39 33.0089 452.5 35.9789 449.44 35.9789Z" fill="white"/>
<path d="M485.38 28.5989C484.525 34.4039 483.085 36.8339 481.195 36.8339C479.53 36.8339 478.945 35.5289 478.945 32.0189V16.8989H485.515V15.7739H473.905C478.675 13.8839 479.845 9.87891 479.845 6.05391H473.095C473.095 11.3189 473.23 15.7739 466.84 15.7739H466.075V16.8989H470.935V30.7589C470.935 35.9789 472.735 38.9039 478.135 38.9039C482.635 38.9039 485.2 36.6089 486.325 28.5989H485.38Z" fill="white"/>
<path d="M490.802 26.7989C490.802 34.7639 496.967 38.6789 503.987 38.6789C511.502 38.6789 514.742 34.3139 516.407 28.8239H515.462C514.067 33.9089 510.827 36.2939 507.092 36.2939C501.422 36.2939 499.532 31.6139 499.532 25.8089C499.532 19.1039 500.972 15.9989 504.842 15.9989C507.992 15.9989 508.712 18.0239 509.117 20.2289C509.657 23.6039 513.392 24.4139 515.327 21.6689C514.337 18.0239 510.782 14.8739 504.437 14.8739C496.967 14.8739 490.802 18.7889 490.802 26.7989Z" fill="white"/>
<path d="M538.192 37.7789H547.327C546.787 33.2789 546.787 31.4339 546.787 28.0589V24.0539C546.787 17.3039 543.817 14.8739 539.137 14.8739C534.277 14.8739 531.532 17.4839 529.642 20.7239V11.8139C529.642 8.43891 529.642 6.00891 530.182 1.77891H521.092C521.632 6.00891 521.632 8.43891 521.632 11.8139V27.7439C521.632 31.1189 521.632 33.5489 521.092 37.7789H530.182C529.642 33.5489 529.642 31.1189 529.642 27.7439V22.4789C531.352 19.0589 533.467 16.9439 535.942 16.9439C537.922 16.9439 538.732 18.4739 538.732 21.1289V28.0589C538.732 31.4339 538.732 33.2789 538.192 37.7789Z" fill="white"/>
<path d="M558.561 11.4089L563.556 7.04391L558.561 2.67891L553.566 7.04391L558.561 11.4089ZM554.016 15.7739C554.556 19.9139 554.556 22.0289 554.556 25.3589V28.1939C554.556 31.5689 554.556 33.6389 554.016 37.7789H563.106C562.566 33.6389 562.566 31.5689 562.566 28.1939V25.3589C562.566 22.0289 562.566 19.9139 563.106 15.7739H554.016Z" fill="white"/>
<path d="M586.748 37.7789H595.883C595.343 33.2789 595.343 31.4339 595.343 28.0589V24.0539C595.343 17.3039 592.373 14.8739 587.693 14.8739C582.923 14.8739 580.178 17.3939 578.288 20.5889C578.333 19.1939 578.468 17.7089 578.738 15.7739H569.648C570.188 19.9139 570.188 22.0289 570.188 25.3589V28.1939C570.188 31.5689 570.188 33.6389 569.648 37.7789H578.738C578.198 33.6389 578.198 31.5689 578.198 28.1939V22.4339C579.908 19.0589 582.023 16.9439 584.498 16.9439C586.478 16.9439 587.288 18.4739 587.288 21.1289V28.0589C587.288 31.4339 587.288 33.2789 586.748 37.7789Z" fill="white"/>
<path d="M628.552 34.1789C622.207 34.1789 617.662 38.1389 609.472 38.1389C607.042 38.1389 605.782 36.9239 605.782 35.4389C605.782 34.0439 606.547 33.0539 608.842 31.8389C611.137 32.7839 613.927 33.2789 616.852 33.2789C624.142 33.2789 630.622 30.2639 630.622 24.0989C630.622 20.7239 628.687 18.2939 625.762 16.7639C627.652 14.8289 628.687 15.5039 630.667 15.9539C633.907 16.9889 635.797 15.0089 635.167 11.5889C629.497 10.4189 627.202 13.2089 624.907 16.3589C622.612 15.3689 619.777 14.8739 616.852 14.8739C609.562 14.8739 603.082 17.8889 603.082 24.0989C603.082 27.0689 604.612 29.3189 606.997 30.8489C602.857 32.1539 600.922 33.9539 600.922 36.3389C600.922 38.2739 602.137 39.5789 603.712 40.3889C601.957 41.2889 600.922 42.5039 600.922 44.1689C600.922 48.2639 607.357 49.4789 613.027 49.4789C622.027 49.4789 635.302 47.0939 635.302 39.5339C635.302 35.8439 632.377 34.1789 628.552 34.1789ZM616.852 15.9989C620.182 15.9989 621.892 18.9239 621.892 24.0989C621.892 29.2289 620.182 32.1989 616.852 32.1989C613.522 32.1989 611.812 29.2289 611.812 24.0989C611.812 18.9239 613.522 15.9989 616.852 15.9989ZM612.082 47.3639C607.447 47.3639 602.992 46.3739 602.992 43.7639C602.992 42.6839 603.532 41.7389 605.017 40.8839C605.962 41.1539 607.042 41.2889 608.032 41.2889C614.872 41.2889 620.047 36.8789 624.817 36.8789C627.157 36.8789 628.192 38.0039 628.192 39.6689C628.192 44.6639 618.967 47.3639 612.082 47.3639Z" fill="white"/>
<path d="M642.615 5.55891C643.965 10.0589 645.045 15.1889 645.63 27.4289H646.53C647.16 15.1889 648.15 10.0589 649.5 5.55891L646.08 1.77891L642.615 5.55891ZM646.08 38.6789L649.815 34.9439L646.08 31.2089L642.345 34.9439L646.08 38.6789Z" fill="white"/>
</svg>
