<svg width="857" height="166" viewBox="0 0 857 166" fill="none" xmlns="http://www.w3.org/2000/svg">
<path d="M7.84998 39.8934C7.84998 29.0401 11.6633 19.8001 19.29 12.1734C26.9167 4.54673 36.0833 0.733398 46.79 0.733398C60.0633 0.733398 70.6233 6.16007 78.47 17.0134H59.33C51.2633 9.38673 43.27 5.5734 35.35 5.5734C29.9233 5.5734 25.56 7.51673 22.26 11.4034C18.96 15.2167 17.31 20.2401 17.31 26.4734C17.31 37.4001 21.6367 47.9967 30.29 58.2634C39.1633 68.7501 48.5133 73.9934 58.34 73.9934C67.36 73.9934 73.08 69.3367 75.5 60.0234H80.12C72.4933 72.5634 61.3833 78.8334 46.79 78.8334C36.0833 78.8334 26.9167 75.0201 19.29 67.3934C11.6633 59.7667 7.84998 50.6001 7.84998 39.8934Z" fill="white"/>
<path d="M101.175 71.5734L107.115 78.2834H80.9347L86.8747 71.5734V13.0534L80.9347 9.0934L101.175 2.3834V71.5734Z" fill="white"/>
<path d="M108.78 59.5834C108.78 54.1567 110.723 49.5734 114.61 45.8334C118.35 42.2401 122.933 40.4434 128.36 40.4434C132.98 40.4434 136.757 41.8367 139.69 44.6234C135.583 38.6834 130.413 35.7134 124.18 35.7134H115.93C117.983 31.9001 121.32 28.7834 125.94 26.3634C130.487 23.9434 135.253 22.7334 140.24 22.7334C145.667 22.7334 150.103 23.9067 153.55 26.2534C157.437 28.8934 159.38 32.7434 159.38 37.8034V71.5734L165.32 78.2834H145.08V64.8634C141.853 74.0301 135.877 78.6134 127.15 78.6134C122.017 78.6134 117.653 76.7801 114.06 73.1134C110.54 69.4467 108.78 64.9367 108.78 59.5834ZM130.12 35.8234C137.6 38.6834 142.587 44.8434 145.08 54.3034V32.4134C145.08 26.8401 143.357 24.0534 139.91 24.0534C135.217 24.0534 131.953 27.9767 130.12 35.8234ZM121.98 53.7534C121.98 58.2267 123.337 62.3701 126.05 66.1834C128.91 70.1434 132.137 72.1234 135.73 72.1234C138.663 72.1234 140.973 70.8034 142.66 68.1634C144.127 65.8901 144.86 63.0667 144.86 59.6934C144.86 55.4401 143.577 51.4067 141.01 47.5934C138.223 43.5601 134.923 41.5434 131.11 41.5434C128.323 41.5434 126.087 42.7901 124.4 45.2834C122.787 47.6301 121.98 50.4534 121.98 53.7534Z" fill="white"/>
<path d="M204.82 37.4734C199.54 37.7667 195.69 38.4634 193.27 39.5634C189.53 41.3234 187.66 44.4034 187.66 48.8034V71.5734L193.6 78.2834H167.42L173.36 71.5734V33.9534L167.42 29.9934L187.66 23.2834V43.0834C189.126 35.7501 191.326 30.6534 194.26 27.7934C197.413 24.7134 202.363 23.2101 209.11 23.2834L204.82 37.4734Z" fill="white"/>
<path d="M223.793 18.7734C221.52 18.7734 219.613 17.9667 218.073 16.3534C216.46 14.8134 215.653 12.9067 215.653 10.6334C215.653 8.36007 216.46 6.4534 218.073 4.9134C219.613 3.30007 221.52 2.4934 223.793 2.4934C226.066 2.4934 227.973 3.30007 229.513 4.9134C231.126 6.4534 231.933 8.36007 231.933 10.6334C231.933 12.9067 231.126 14.8134 229.513 16.3534C227.973 17.9667 226.066 18.7734 223.793 18.7734ZM216.973 71.5734V33.8434L211.033 29.8834L231.273 23.2834V71.5734L237.213 78.2834H211.033L216.973 71.5734Z" fill="white"/>
<path d="M239.863 50.7834C239.863 43.0101 242.613 36.4101 248.113 30.9834C253.54 25.4834 260.14 22.7334 267.913 22.7334C278.4 22.7334 286.43 27.2801 292.003 36.3734L275.393 36.2634C270.627 28.8567 265.75 25.1534 260.763 25.1534C257.903 25.1534 255.667 26.4734 254.053 29.1134C252.66 31.5334 251.963 34.6501 251.963 38.4634C251.963 46.7501 254.383 55.0367 259.223 63.3234C264.21 71.9767 269.527 76.3034 275.173 76.3034C278.18 76.3034 280.453 74.8367 281.993 71.9034C283.387 69.2634 284.01 65.8167 283.863 61.5634H293.763C291.563 66.7701 288.117 70.9501 283.423 74.1034C278.73 77.2567 273.56 78.8334 267.913 78.8334C260.213 78.8334 253.613 76.0834 248.113 70.5834C242.613 65.0834 239.863 58.4834 239.863 50.7834Z" fill="white"/>
<path d="M326.256 78.8334C318.189 78.8334 311.406 76.1201 305.906 70.6934C300.406 65.2667 297.656 58.6667 297.656 50.8934C297.656 43.1201 300.406 36.4834 305.906 30.9834C311.406 25.4834 318.043 22.7334 325.816 22.7334C336.083 22.7334 344.003 27.0967 349.576 35.8234H328.236C335.716 37.1434 341.546 39.7101 345.726 43.5234C350.053 47.4101 352.216 52.2867 352.216 58.1534C352.216 63.7267 349.979 68.4934 345.506 72.4534C340.666 76.7067 334.249 78.8334 326.256 78.8334ZM320.426 24.7134C314.339 24.7134 310.893 28.1234 310.086 34.9434H332.856C331.976 32.0101 330.399 29.5901 328.126 27.6834C325.779 25.7034 323.213 24.7134 320.426 24.7134ZM309.976 35.8234C309.169 44.9901 311.223 53.3134 316.136 60.7934C321.27 68.5667 327.686 72.4534 335.386 72.4534C339.786 72.4534 343.489 70.8034 346.496 67.5034C349.429 64.4234 350.896 60.7201 350.896 56.3934C350.896 50.3067 347.743 45.3201 341.436 41.4334C335.423 37.6934 328.273 35.8234 319.986 35.8234H309.976Z" fill="white"/>
<path d="M459.3 71.5734L465.24 78.2834H439.06L445 71.5734V9.6434L424.54 68.0534V78.2834H413.32L386.7 13.4934V66.4034L397.59 78.2834H374.82L385.71 66.4034V11.8434L380.54 1.2834H396.93L423.99 66.6234L444.56 8.1034L438.73 1.2834H465.24L459.3 7.9934V71.5734Z" fill="white"/>
<path d="M481.068 18.7734C478.795 18.7734 476.888 17.9667 475.348 16.3534C473.735 14.8134 472.928 12.9067 472.928 10.6334C472.928 8.36007 473.735 6.4534 475.348 4.9134C476.888 3.30007 478.795 2.4934 481.068 2.4934C483.342 2.4934 485.248 3.30007 486.788 4.9134C488.402 6.4534 489.208 8.36007 489.208 10.6334C489.208 12.9067 488.402 14.8134 486.788 16.3534C485.248 17.9667 483.342 18.7734 481.068 18.7734ZM474.248 71.5734V33.8434L468.308 29.8834L488.548 23.2834V71.5734L494.488 78.2834H468.308L474.248 71.5734Z" fill="white"/>
<path d="M534.068 37.4734C528.788 37.7667 524.938 38.4634 522.518 39.5634C518.778 41.3234 516.908 44.4034 516.908 48.8034V71.5734L522.848 78.2834H496.668L502.608 71.5734V33.9534L496.668 29.9934L516.908 23.2834V43.0834C518.374 35.7501 520.574 30.6534 523.508 27.7934C526.661 24.7134 531.611 23.2101 538.358 23.2834L534.068 37.4734Z" fill="white"/>
<path d="M533.419 59.5834C533.419 54.1567 535.362 49.5734 539.249 45.8334C542.989 42.2401 547.572 40.4434 552.999 40.4434C557.619 40.4434 561.395 41.8367 564.329 44.6234C560.222 38.6834 555.052 35.7134 548.819 35.7134H540.569C542.622 31.9001 545.959 28.7834 550.579 26.3634C555.125 23.9434 559.892 22.7334 564.879 22.7334C570.305 22.7334 574.742 23.9067 578.189 26.2534C582.076 28.8934 584.019 32.7434 584.019 37.8034V71.5734L589.959 78.2834H569.719V64.8634C566.492 74.0301 560.515 78.6134 551.789 78.6134C546.655 78.6134 542.292 76.7801 538.699 73.1134C535.179 69.4467 533.419 64.9367 533.419 59.5834ZM554.759 35.8234C562.239 38.6834 567.225 44.8434 569.719 54.3034V32.4134C569.719 26.8401 567.995 24.0534 564.549 24.0534C559.855 24.0534 556.592 27.9767 554.759 35.8234ZM546.619 53.7534C546.619 58.2267 547.975 62.3701 550.689 66.1834C553.549 70.1434 556.776 72.1234 560.369 72.1234C563.302 72.1234 565.612 70.8034 567.299 68.1634C568.765 65.8901 569.499 63.0667 569.499 59.6934C569.499 55.4401 568.215 51.4067 565.649 47.5934C562.862 43.5601 559.562 41.5434 555.749 41.5434C552.962 41.5434 550.725 42.7901 549.039 45.2834C547.425 47.6301 546.619 50.4534 546.619 53.7534Z" fill="white"/>
<path d="M644.528 71.5734L650.468 78.2834H624.288L630.228 71.5734V38.7934C630.228 36.0067 629.312 33.6234 627.478 31.6434C625.645 29.7367 623.482 28.7834 620.988 28.7834C617.835 28.7834 614.938 30.2134 612.298 33.0734V71.5734L618.238 78.2834H592.058L597.998 71.5734V34.7234L592.058 30.7634L612.298 23.2834V31.7534C618.018 25.8867 623.885 22.9534 629.898 22.9534C634.152 22.9534 637.672 24.4567 640.458 27.4634C643.172 30.4701 644.528 34.2101 644.528 38.6834V71.5734Z" fill="white"/>
<path d="M652.685 50.7834C652.685 43.0834 654.885 36.4834 659.285 30.9834C663.612 25.4834 668.855 22.7334 675.015 22.7334C681.395 22.7334 686.602 25.1167 690.635 29.8834V13.0534L684.695 9.0934L704.935 2.3834V71.5734L710.875 78.2834H690.635V71.6834C686.602 76.4501 681.395 78.8334 675.015 78.8334C668.855 78.8334 663.612 76.0834 659.285 70.5834C654.885 65.0834 652.685 58.4834 652.685 50.7834ZM667.095 50.7834C667.095 57.0901 668.305 62.7734 670.725 67.8334C673.439 73.4801 676.775 76.3034 680.735 76.3034C684.109 76.3034 687.409 74.2134 690.635 70.0334V31.5334C687.409 27.3534 684.109 25.2634 680.735 25.2634C676.775 25.2634 673.439 28.0867 670.725 33.7334C668.305 38.7934 667.095 44.4767 667.095 50.7834Z" fill="white"/>
<path d="M713.594 50.7834C713.594 43.0834 716.307 36.4834 721.734 30.9834C727.234 25.4834 733.834 22.7334 741.534 22.7334C749.307 22.7334 755.944 25.4834 761.444 30.9834C766.87 36.4834 769.584 43.0834 769.584 50.7834C769.584 58.5567 766.87 65.1567 761.444 70.5834C755.944 76.0834 749.307 78.8334 741.534 78.8334C733.76 78.8334 727.16 76.0834 721.734 70.5834C716.307 65.1567 713.594 58.5567 713.594 50.7834ZM725.584 38.4634C725.584 47.4101 728.187 56.0267 733.394 64.3134C738.454 72.3801 743.514 76.4134 748.574 76.4134C754.514 76.4134 757.484 71.9767 757.484 63.1034C757.484 54.1567 754.88 45.5401 749.674 37.2534C744.614 29.1867 739.554 25.1534 734.494 25.1534C728.554 25.1534 725.584 29.5901 725.584 38.4634Z" fill="white"/>
<path d="M792.542 71.5734L798.482 78.2834H772.302L778.242 71.5734V13.0534L772.302 9.0934L792.542 2.3834V71.5734Z" fill="white"/>
<path d="M800.147 59.5834C800.147 54.1567 802.091 49.5734 805.977 45.8334C809.717 42.2401 814.301 40.4434 819.727 40.4434C824.347 40.4434 828.124 41.8367 831.057 44.6234C826.951 38.6834 821.781 35.7134 815.547 35.7134H807.297C809.351 31.9001 812.687 28.7834 817.307 26.3634C821.854 23.9434 826.621 22.7334 831.607 22.7334C837.034 22.7334 841.471 23.9067 844.917 26.2534C848.804 28.8934 850.747 32.7434 850.747 37.8034V71.5734L856.687 78.2834H836.447V64.8634C833.221 74.0301 827.244 78.6134 818.517 78.6134C813.384 78.6134 809.021 76.7801 805.427 73.1134C801.907 69.4467 800.147 64.9367 800.147 59.5834ZM821.487 35.8234C828.967 38.6834 833.954 44.8434 836.447 54.3034V32.4134C836.447 26.8401 834.724 24.0534 831.277 24.0534C826.584 24.0534 823.321 27.9767 821.487 35.8234ZM813.347 53.7534C813.347 58.2267 814.704 62.3701 817.417 66.1834C820.277 70.1434 823.504 72.1234 827.097 72.1234C830.031 72.1234 832.341 70.8034 834.027 68.1634C835.494 65.8901 836.227 63.0667 836.227 59.6934C836.227 55.4401 834.944 51.4067 832.377 47.5934C829.591 43.5601 826.291 41.5434 822.477 41.5434C819.691 41.5434 817.454 42.7901 815.767 45.2834C814.154 47.6301 813.347 50.4534 813.347 53.7534Z" fill="white"/>
<path d="M51.68 118.765C51.68 124.824 49.8453 130.37 46.176 135.405C42.5493 140.397 37.728 144.024 31.712 146.285C29.1093 147.266 26.8907 147.906 25.056 148.205C23.2213 148.461 20.064 148.61 15.584 148.653C14.2186 148.653 10.976 148.674 5.85598 148.717L2.27198 148.781C1.88798 148.824 1.43998 148.845 0.927983 148.845C0.330649 148.845 0.0319824 148.653 0.0319824 148.269C0.0319824 147.928 0.309316 147.714 0.863982 147.629C1.24798 147.586 1.90932 147.565 2.84798 147.565C4.81065 147.565 6.04798 147.373 6.55998 146.989C7.02932 146.434 7.37065 145.858 7.58398 145.261C7.83998 144.664 8.24532 143.725 8.79998 142.445L21.728 110.445C22.624 108.226 23.072 106.925 23.072 106.541C23.072 106.029 22.4107 105.709 21.088 105.581L17.632 105.261C16.9493 105.261 16.608 105.09 16.608 104.749C16.608 104.408 17.056 104.237 17.952 104.237C18.592 104.237 19.872 104.28 21.792 104.365C22.7733 104.408 24.096 104.429 25.76 104.429H30.112C31.0507 104.429 32.1173 104.408 33.312 104.365C34.5067 104.365 35.232 104.365 35.488 104.365C39.328 104.365 42.464 104.984 44.896 106.221C49.4187 108.61 51.68 112.792 51.68 118.765ZM45.344 116.589C45.344 112.45 44.2346 109.485 42.016 107.693C40.224 106.242 37.7066 105.517 34.464 105.517C32.7573 105.517 31.4773 105.602 30.624 105.773C30.1973 105.858 29.7067 106.498 29.152 107.693C28.3413 109.4 27.7653 110.701 27.424 111.597L15.328 142.189C14.2613 144.877 13.728 146.306 13.728 146.477C13.728 147.117 14.88 147.437 17.184 147.437C25.0773 147.437 31.52 144.664 36.512 139.117C39.2426 136.13 41.3973 132.61 42.976 128.557C44.5546 124.504 45.344 120.514 45.344 116.589Z" fill="white"/>
<path d="M70.55 109.613C70.55 111.405 69.718 112.301 68.054 112.301C67.2007 112.301 66.4967 112.045 65.942 111.533C65.3873 110.978 65.11 110.296 65.11 109.485C65.11 107.736 66.0913 106.861 68.054 106.861C69.718 106.861 70.55 107.778 70.55 109.613ZM66.134 121.581C66.134 121.709 66.0273 121.965 65.814 122.349C65.5153 122.861 65.0246 123.906 64.342 125.485L56.982 142.317C56.0006 144.578 55.51 145.986 55.51 146.541C55.51 147.693 56.1073 148.269 57.302 148.269C58.1126 148.269 59.03 147.992 60.054 147.437C61.1206 146.84 61.9313 146.136 62.486 145.325C62.87 144.813 63.1687 144.557 63.382 144.557C63.638 144.557 63.766 144.685 63.766 144.941C63.766 145.453 63.1687 146.221 61.974 147.245C60.182 148.781 58.1553 149.549 55.894 149.549C54.4006 149.549 53.1633 149.165 52.182 148.397C51.2433 147.629 50.774 146.648 50.774 145.453C50.774 144.386 51.3073 142.658 52.374 140.269L59.03 125.421C59.2433 124.696 59.4993 124.141 59.798 123.757C59.926 123.586 59.99 123.437 59.99 123.309C59.99 122.925 59.0513 122.669 57.174 122.541C56.8327 122.456 56.662 122.306 56.662 122.093C56.662 121.709 56.8327 121.517 57.174 121.517C57.2167 121.517 57.5367 121.56 58.134 121.645C58.7313 121.73 59.6913 121.773 61.014 121.773C62.806 121.773 64.0647 121.624 64.79 121.325C65.2167 121.154 65.5153 121.069 65.686 121.069C65.9846 121.069 66.134 121.24 66.134 121.581Z" fill="white"/>
<path d="M96.037 123.629C96.037 124.994 95.397 125.677 94.117 125.677C92.9223 125.677 92.325 125.101 92.325 123.949C92.325 123.821 92.3463 123.693 92.389 123.565C92.4317 123.394 92.4743 123.181 92.517 122.925C92.517 122.712 92.389 122.605 92.133 122.605C91.7063 122.605 91.0877 123.074 90.277 124.013C89.509 124.909 89.125 125.592 89.125 126.061C89.125 126.274 89.2103 126.53 89.381 126.829C89.893 128.024 90.149 129.325 90.149 130.733C90.149 133.762 89.125 136.344 87.077 138.477C85.0716 140.568 82.3837 141.613 79.013 141.613C76.5383 141.613 74.3196 140.909 72.357 139.501C69.0716 140.653 67.429 141.933 67.429 143.341C67.429 144.237 68.069 144.792 69.349 145.005C71.7383 145.389 73.0823 145.538 73.381 145.453H78.693C81.125 145.453 82.8743 145.581 83.941 145.837C87.0983 146.605 88.677 148.909 88.677 152.749C88.677 156.162 87.461 159.106 85.029 161.581C82.4263 164.226 78.821 165.549 74.213 165.549C70.885 165.549 67.941 164.781 65.381 163.245C62.2663 161.368 60.709 159.17 60.709 156.653C60.709 154.904 61.4983 153.453 63.077 152.301C63.8023 151.789 65.4023 151.064 67.877 150.125C65.4023 149.101 64.165 147.608 64.165 145.645C64.165 142.402 66.6396 140.077 71.589 138.669C70.2236 136.877 69.541 135.064 69.541 133.229C69.541 129.944 70.7357 127.128 73.125 124.781C75.557 122.392 78.437 121.197 81.765 121.197C84.325 121.197 86.501 122.349 88.293 124.653C89.8717 122.221 91.5356 121.005 93.285 121.005C95.1196 121.005 96.037 121.88 96.037 123.629ZM85.669 126.765C85.669 123.778 84.4317 122.285 81.957 122.285C79.909 122.285 78.0743 124.077 76.453 127.661C75.045 130.733 74.341 133.613 74.341 136.301C74.341 139.074 75.7063 140.461 78.437 140.461C80.4423 140.461 82.1703 138.818 83.621 135.533C84.9863 132.461 85.669 129.538 85.669 126.765ZM86.821 155.117C86.821 154.05 86.4796 153.09 85.797 152.237C85.1143 151.426 84.261 150.914 83.237 150.701C81.829 150.402 79.589 150.274 76.517 150.317L69.285 150.445C66.6396 151.768 65.317 153.816 65.317 156.589C65.317 158.936 66.149 160.813 67.813 162.221C69.5196 163.672 71.7596 164.397 74.533 164.397C77.8183 164.397 80.677 163.458 83.109 161.581C85.5837 159.746 86.821 157.592 86.821 155.117Z" fill="white"/>
<path d="M113.612 109.613C113.612 111.405 112.78 112.301 111.116 112.301C110.263 112.301 109.559 112.045 109.004 111.533C108.45 110.978 108.172 110.296 108.172 109.485C108.172 107.736 109.154 106.861 111.116 106.861C112.78 106.861 113.612 107.778 113.612 109.613ZM109.196 121.581C109.196 121.709 109.09 121.965 108.876 122.349C108.578 122.861 108.087 123.906 107.404 125.485L100.044 142.317C99.0631 144.578 98.5725 145.986 98.5725 146.541C98.5725 147.693 99.1698 148.269 100.364 148.269C101.175 148.269 102.092 147.992 103.116 147.437C104.183 146.84 104.994 146.136 105.548 145.325C105.932 144.813 106.231 144.557 106.444 144.557C106.7 144.557 106.828 144.685 106.828 144.941C106.828 145.453 106.231 146.221 105.036 147.245C103.244 148.781 101.218 149.549 98.9565 149.549C97.4631 149.549 96.2258 149.165 95.2445 148.397C94.3058 147.629 93.8365 146.648 93.8365 145.453C93.8365 144.386 94.3698 142.658 95.4365 140.269L102.092 125.421C102.306 124.696 102.562 124.141 102.86 123.757C102.988 123.586 103.052 123.437 103.052 123.309C103.052 122.925 102.114 122.669 100.236 122.541C99.8951 122.456 99.7245 122.306 99.7245 122.093C99.7245 121.709 99.8951 121.517 100.236 121.517C100.279 121.517 100.599 121.56 101.196 121.645C101.794 121.73 102.754 121.773 104.076 121.773C105.868 121.773 107.127 121.624 107.852 121.325C108.279 121.154 108.578 121.069 108.748 121.069C109.047 121.069 109.196 121.24 109.196 121.581Z" fill="white"/>
<path d="M129.819 121.901C129.819 122.498 128.923 122.818 127.131 122.861L124.699 122.925H123.547L114.907 142.317C113.969 144.408 113.499 145.73 113.499 146.285C113.499 147.181 114.161 147.629 115.483 147.629C117.403 147.629 119.11 146.605 120.603 144.557C120.945 144.13 121.201 143.917 121.371 143.917C121.713 143.917 121.883 144.066 121.883 144.365C121.883 144.92 121.179 145.816 119.771 147.053C118.15 148.461 116.209 149.165 113.947 149.165C112.411 149.165 111.153 148.781 110.171 148.013C109.233 147.245 108.763 146.264 108.763 145.069C108.763 144.301 109.254 142.872 110.235 140.781L118.619 122.797H115.995C115.27 122.797 114.907 122.648 114.907 122.349C114.907 121.794 115.206 121.517 115.803 121.517H116.379C116.593 121.56 116.934 121.581 117.403 121.581C118.001 121.581 118.577 121.56 119.131 121.517L120.219 118.765C120.603 117.826 120.902 117.357 121.115 117.357C121.329 117.357 121.649 117.4 122.075 117.485C122.545 117.57 122.907 117.613 123.163 117.613C123.633 117.613 124.315 117.4 125.211 116.973C125.382 116.888 125.531 116.845 125.659 116.845C125.873 116.845 125.979 116.93 125.979 117.101C125.979 117.101 125.745 117.613 125.275 118.637L123.867 121.709L125.403 121.645L127.835 121.517C128.049 121.517 128.305 121.496 128.603 121.453C128.902 121.41 129.073 121.389 129.115 121.389C129.585 121.389 129.819 121.56 129.819 121.901Z" fill="white"/>
<path d="M156.564 121.453C156.564 121.581 156.393 122.029 156.052 122.797L147.604 141.997C146.793 143.832 146.388 145.24 146.388 146.221C146.388 147.33 146.943 147.885 148.052 147.885C149.716 147.885 151.38 146.754 153.044 144.493C153.385 144.024 153.641 143.789 153.812 143.789C153.983 143.789 154.068 143.874 154.068 144.045C154.068 144.514 153.599 145.261 152.66 146.285C150.783 148.29 148.543 149.293 145.94 149.293C144.617 149.293 143.529 148.973 142.676 148.333C141.865 147.693 141.46 146.861 141.46 145.837C141.46 145.197 141.609 144.45 141.908 143.597C139.22 147.565 136.105 149.549 132.564 149.549C130.345 149.549 128.532 148.845 127.124 147.437C125.716 145.986 125.012 144.152 125.012 141.933C125.012 139.501 125.823 136.834 127.444 133.933C129.065 131.032 131.22 128.386 133.908 125.997C137.577 122.754 140.948 121.133 144.02 121.133C147.22 121.133 149.012 122.669 149.396 125.741L150.996 122.349C151.337 121.666 151.636 121.325 151.892 121.325C151.977 121.325 152.233 121.368 152.66 121.453C153.087 121.538 153.385 121.581 153.556 121.581C154.495 121.581 155.22 121.453 155.732 121.197C155.903 121.069 156.052 121.005 156.18 121.005C156.436 121.005 156.564 121.154 156.564 121.453ZM148.5 126.893C148.5 125.57 148.095 124.504 147.284 123.693C146.516 122.882 145.513 122.477 144.276 122.477C142.143 122.477 140.095 123.736 138.132 126.253C135.871 129.112 134.057 132.141 132.692 135.341C131.327 138.498 130.644 141.272 130.644 143.661C130.644 146.562 131.839 148.013 134.228 148.013C135.593 148.013 137.065 147.266 138.644 145.773C140.265 144.28 141.609 142.402 142.676 140.141L147.668 129.389C148.223 128.194 148.5 127.362 148.5 126.893Z" fill="white"/>
<path d="M178.791 103.917C178.791 104.002 178.685 104.301 178.471 104.813C178.343 105.154 178.13 105.666 177.831 106.349L163.495 141.357C162.429 143.96 161.895 145.645 161.895 146.413C161.895 147.565 162.663 148.141 164.199 148.141C165.735 148.141 167.271 147.245 168.807 145.453C169.447 144.685 169.853 144.301 170.023 144.301C170.322 144.301 170.471 144.45 170.471 144.749C170.471 145.304 169.767 146.2 168.359 147.437C166.738 148.888 164.647 149.613 162.087 149.613C158.589 149.613 156.839 148.312 156.839 145.709C156.839 144.856 157.373 143.128 158.439 140.525L172.775 105.581C172.903 105.325 172.967 105.176 172.967 105.133C172.967 104.749 172.562 104.557 171.751 104.557C169.874 104.557 168.935 104.386 168.935 104.045C168.935 103.789 169.127 103.661 169.511 103.661C169.895 103.661 170.471 103.682 171.239 103.725C172.05 103.768 172.647 103.789 173.031 103.789C174.866 103.789 176.231 103.704 177.127 103.533C177.597 103.448 177.917 103.405 178.087 103.405C178.557 103.405 178.791 103.576 178.791 103.917Z" fill="white"/>
<path d="M199.17 149.388C197.393 149.388 195.77 149.043 194.3 148.353C192.83 147.65 191.66 146.64 190.79 145.323C189.921 143.993 189.486 142.382 189.486 140.49C189.486 139.033 189.761 137.806 190.311 136.809C190.861 135.811 191.641 134.993 192.651 134.354C193.661 133.715 194.856 133.21 196.236 132.839C197.617 132.468 199.138 132.181 200.8 131.976C202.45 131.772 203.843 131.593 204.981 131.439C206.131 131.286 207.007 131.043 207.608 130.711C208.209 130.378 208.509 129.841 208.509 129.1V128.409C208.509 126.402 207.908 124.824 206.707 123.673C205.518 122.51 203.805 121.928 201.567 121.928C199.445 121.928 197.713 122.395 196.371 123.328C195.041 124.261 194.108 125.36 193.571 126.626L190.33 125.456C190.995 123.846 191.915 122.561 193.092 121.602C194.268 120.63 195.584 119.934 197.042 119.512C198.499 119.077 199.976 118.86 201.472 118.86C202.597 118.86 203.766 119.007 204.981 119.301C206.208 119.595 207.346 120.106 208.394 120.835C209.442 121.551 210.293 122.554 210.945 123.846C211.597 125.124 211.923 126.748 211.923 128.716V148.717H208.509V144.057H208.298C207.889 144.927 207.282 145.77 206.477 146.588C205.671 147.407 204.661 148.078 203.447 148.602C202.232 149.126 200.807 149.388 199.17 149.388ZM199.631 146.262C201.446 146.262 203.018 145.86 204.348 145.054C205.678 144.249 206.7 143.181 207.416 141.852C208.145 140.51 208.509 139.033 208.509 137.422V133.165C208.254 133.408 207.825 133.625 207.224 133.817C206.636 134.009 205.952 134.181 205.173 134.335C204.406 134.476 203.638 134.597 202.871 134.699C202.104 134.802 201.414 134.891 200.8 134.968C199.138 135.172 197.719 135.492 196.543 135.927C195.367 136.361 194.466 136.962 193.839 137.729C193.213 138.483 192.9 139.455 192.9 140.644C192.9 142.434 193.539 143.821 194.817 144.805C196.096 145.777 197.7 146.262 199.631 146.262Z" fill="white"/>
<path d="M224.416 130.308V148.717H221.002V119.262H224.32V123.884H224.627C225.317 122.375 226.391 121.167 227.848 120.26C229.319 119.339 231.134 118.879 233.294 118.879C235.276 118.879 237.015 119.294 238.51 120.125C240.019 120.944 241.189 122.152 242.02 123.75C242.863 125.348 243.285 127.31 243.285 129.637V148.717H239.872V129.848C239.872 127.431 239.194 125.52 237.839 124.114C236.497 122.708 234.694 122.005 232.431 122.005C230.885 122.005 229.51 122.337 228.309 123.002C227.107 123.667 226.154 124.625 225.451 125.878C224.761 127.118 224.416 128.595 224.416 130.308Z" fill="white"/>
<path d="M262.878 149.331C260.462 149.331 258.346 148.691 256.531 147.413C254.716 146.135 253.297 144.351 252.274 142.063C251.264 139.775 250.759 137.109 250.759 134.066C250.759 131.037 251.264 128.384 252.274 126.108C253.297 123.82 254.722 122.043 256.55 120.777C258.378 119.499 260.507 118.86 262.936 118.86C264.726 118.86 266.215 119.179 267.404 119.819C268.593 120.445 269.545 121.225 270.261 122.158C270.977 123.091 271.533 123.999 271.93 124.881H272.236V109.444H275.669V148.717H272.332V143.252H271.93C271.533 144.147 270.971 145.067 270.242 146.013C269.513 146.946 268.548 147.733 267.346 148.372C266.157 149.011 264.668 149.331 262.878 149.331ZM263.281 146.205C265.186 146.205 266.809 145.687 268.152 144.652C269.494 143.603 270.517 142.165 271.22 140.337C271.936 138.496 272.294 136.387 272.294 134.009C272.294 131.657 271.942 129.579 271.239 127.777C270.536 125.961 269.513 124.542 268.171 123.52C266.829 122.484 265.199 121.966 263.281 121.966C261.312 121.966 259.65 122.503 258.295 123.577C256.953 124.638 255.93 126.076 255.227 127.892C254.537 129.707 254.192 131.746 254.192 134.009C254.192 136.297 254.543 138.362 255.246 140.203C255.949 142.044 256.972 143.507 258.314 144.594C259.67 145.668 261.325 146.205 263.281 146.205Z" fill="white"/>
<path d="M326.984 123.629C326.984 124.994 326.344 125.677 325.064 125.677C323.87 125.677 323.272 125.101 323.272 123.949C323.272 123.821 323.294 123.693 323.336 123.565C323.379 123.394 323.422 123.181 323.464 122.925C323.464 122.712 323.336 122.605 323.08 122.605C322.654 122.605 322.035 123.074 321.224 124.013C320.456 124.909 320.072 125.592 320.072 126.061C320.072 126.274 320.158 126.53 320.328 126.829C320.84 128.024 321.096 129.325 321.096 130.733C321.096 133.762 320.072 136.344 318.024 138.477C316.019 140.568 313.331 141.613 309.96 141.613C307.486 141.613 305.267 140.909 303.304 139.501C300.019 140.653 298.376 141.933 298.376 143.341C298.376 144.237 299.016 144.792 300.296 145.005C302.686 145.389 304.03 145.538 304.328 145.453H309.64C312.072 145.453 313.822 145.581 314.888 145.837C318.046 146.605 319.624 148.909 319.624 152.749C319.624 156.162 318.408 159.106 315.976 161.581C313.374 164.226 309.768 165.549 305.16 165.549C301.832 165.549 298.888 164.781 296.328 163.245C293.214 161.368 291.656 159.17 291.656 156.653C291.656 154.904 292.446 153.453 294.024 152.301C294.75 151.789 296.35 151.064 298.824 150.125C296.35 149.101 295.112 147.608 295.112 145.645C295.112 142.402 297.587 140.077 302.536 138.669C301.171 136.877 300.488 135.064 300.488 133.229C300.488 129.944 301.683 127.128 304.072 124.781C306.504 122.392 309.384 121.197 312.712 121.197C315.272 121.197 317.448 122.349 319.24 124.653C320.819 122.221 322.483 121.005 324.232 121.005C326.067 121.005 326.984 121.88 326.984 123.629ZM316.616 126.765C316.616 123.778 315.379 122.285 312.904 122.285C310.856 122.285 309.022 124.077 307.4 127.661C305.992 130.733 305.288 133.613 305.288 136.301C305.288 139.074 306.654 140.461 309.384 140.461C311.39 140.461 313.118 138.818 314.568 135.533C315.934 132.461 316.616 129.538 316.616 126.765ZM317.768 155.117C317.768 154.05 317.427 153.09 316.744 152.237C316.062 151.426 315.208 150.914 314.184 150.701C312.776 150.402 310.536 150.274 307.464 150.317L300.232 150.445C297.587 151.768 296.264 153.816 296.264 156.589C296.264 158.936 297.096 160.813 298.76 162.221C300.467 163.672 302.707 164.397 305.48 164.397C308.766 164.397 311.624 163.458 314.056 161.581C316.531 159.746 317.768 157.592 317.768 155.117Z" fill="white"/>
<path d="M349.68 124.141C349.68 124.994 349.402 125.741 348.848 126.381C348.293 126.978 347.653 127.277 346.928 127.277C346.245 127.277 345.904 127.042 345.904 126.573C345.904 126.573 345.946 126.36 346.032 125.933C346.117 125.677 346.16 125.442 346.16 125.229C346.16 124.205 345.648 123.693 344.624 123.693C343.386 123.693 341.658 124.888 339.44 127.277C337.221 129.666 335.13 133.016 333.168 137.325L328.56 147.437C328.133 148.418 327.77 148.909 327.472 148.909C326.618 148.781 325.957 148.717 325.488 148.717C324.762 148.717 324.186 148.76 323.76 148.845H323.376C322.992 148.845 322.8 148.76 322.8 148.589C322.8 148.546 322.864 148.461 322.992 148.333L323.312 147.693L334.128 123.117C334.128 122.776 333.85 122.605 333.296 122.605C333.338 122.605 333.253 122.605 333.04 122.605C332.869 122.648 332.592 122.669 332.208 122.669H331.568C330.928 122.669 330.608 122.52 330.608 122.221C330.608 121.965 331.717 121.794 333.936 121.709C336.154 121.624 337.648 121.432 338.416 121.133C338.757 121.048 338.949 121.005 338.992 121.005C339.248 121.005 339.376 121.133 339.376 121.389C339.376 121.602 339.098 122.392 338.544 123.757L336.176 129.517C340.101 124.056 343.557 121.325 346.544 121.325C348.634 121.325 349.68 122.264 349.68 124.141Z" fill="white"/>
<path d="M377.386 121.453C377.386 121.581 377.216 122.029 376.874 122.797L368.426 141.997C367.616 143.832 367.21 145.24 367.21 146.221C367.21 147.33 367.765 147.885 368.874 147.885C370.538 147.885 372.202 146.754 373.866 144.493C374.208 144.024 374.464 143.789 374.634 143.789C374.805 143.789 374.89 143.874 374.89 144.045C374.89 144.514 374.421 145.261 373.482 146.285C371.605 148.29 369.365 149.293 366.762 149.293C365.44 149.293 364.352 148.973 363.498 148.333C362.688 147.693 362.282 146.861 362.282 145.837C362.282 145.197 362.432 144.45 362.73 143.597C360.042 147.565 356.928 149.549 353.386 149.549C351.168 149.549 349.354 148.845 347.946 147.437C346.538 145.986 345.834 144.152 345.834 141.933C345.834 139.501 346.645 136.834 348.266 133.933C349.888 131.032 352.042 128.386 354.73 125.997C358.4 122.754 361.77 121.133 364.842 121.133C368.042 121.133 369.834 122.669 370.218 125.741L371.818 122.349C372.16 121.666 372.458 121.325 372.714 121.325C372.8 121.325 373.056 121.368 373.482 121.453C373.909 121.538 374.208 121.581 374.378 121.581C375.317 121.581 376.042 121.453 376.554 121.197C376.725 121.069 376.874 121.005 377.002 121.005C377.258 121.005 377.386 121.154 377.386 121.453ZM369.322 126.893C369.322 125.57 368.917 124.504 368.106 123.693C367.338 122.882 366.336 122.477 365.098 122.477C362.965 122.477 360.917 123.736 358.954 126.253C356.693 129.112 354.88 132.141 353.514 135.341C352.149 138.498 351.466 141.272 351.466 143.661C351.466 146.562 352.661 148.013 355.05 148.013C356.416 148.013 357.888 147.266 359.466 145.773C361.088 144.28 362.432 142.402 363.498 140.141L368.49 129.389C369.045 128.194 369.322 127.362 369.322 126.893Z" fill="white"/>
<path d="M407.23 128.621C407.23 133.57 405.203 138.285 401.15 142.765C397.096 147.202 392.808 149.421 388.286 149.421C385.384 149.421 383.422 148.12 382.398 145.517L377.022 158.765C376.68 159.576 376.446 160.237 376.318 160.749C375.934 161.816 375.507 162.754 375.038 163.565C378.152 163.693 379.71 163.906 379.71 164.205C379.71 164.546 379.176 164.717 378.11 164.717C377.171 164.717 376.019 164.674 374.654 164.589L372.734 164.461C372.776 164.461 372.392 164.482 371.582 164.525C370.643 164.568 369.726 164.61 368.83 164.653L366.27 164.717C365.374 164.76 364.926 164.589 364.926 164.205C364.926 163.778 365.523 163.544 366.718 163.501C368.296 163.416 369.278 163.224 369.662 162.925C370.046 162.626 370.6 161.624 371.326 159.917L385.662 125.485C386.387 123.736 386.75 122.818 386.75 122.733C386.75 122.392 386.494 122.221 385.982 122.221H385.342C385.128 122.264 384.787 122.285 384.318 122.285C383.55 122.285 383.166 122.114 383.166 121.773C383.166 121.474 383.422 121.325 383.934 121.325H384.958C388.371 121.325 390.59 121.197 391.614 120.941C391.955 120.856 392.168 120.813 392.254 120.813C392.51 120.813 392.638 120.941 392.638 121.197C392.638 121.453 392.04 122.904 390.846 125.549C392.808 123.8 394.366 122.626 395.518 122.029C396.712 121.389 398.014 121.069 399.422 121.069C401.683 121.069 403.539 121.773 404.99 123.181C406.483 124.589 407.23 126.402 407.23 128.621ZM401.79 126.381C401.79 123.864 400.659 122.605 398.398 122.605C396.179 122.605 393.918 123.928 391.614 126.573C389.822 128.621 388.051 131.842 386.302 136.237L384.19 141.485C383.72 142.637 383.486 143.49 383.486 144.045C383.486 145.154 383.912 146.114 384.766 146.925C385.619 147.736 386.643 148.141 387.838 148.141C391.294 148.141 394.579 145.24 397.694 139.437C400.424 134.36 401.79 130.008 401.79 126.381Z" fill="white"/>
<path d="M438.228 143.981C438.228 144.28 437.823 144.77 437.012 145.453C433.983 148.013 431.231 149.293 428.756 149.293C427.562 149.293 426.602 148.973 425.876 148.333C425.151 147.65 424.788 146.776 424.788 145.709C424.788 144.813 425.3 143.213 426.324 140.909L431.956 128.301C432.895 126.21 433.364 124.909 433.364 124.397C433.364 123.074 432.66 122.413 431.252 122.413C429.503 122.413 427.37 123.608 424.852 125.997C422.932 127.832 421.46 129.496 420.436 130.989C419.455 132.482 418.282 134.786 416.916 137.901L412.756 147.245C412.415 148.056 412.18 148.525 412.052 148.653C411.924 148.781 411.668 148.845 411.284 148.845C411.114 148.845 410.538 148.802 409.556 148.717C408.234 148.802 407.508 148.866 407.38 148.909C407.21 148.952 407.039 148.973 406.868 148.973C406.698 148.973 406.612 148.909 406.612 148.781C406.612 148.61 406.762 148.184 407.06 147.501L424.66 107.437C425.3 105.986 425.62 105.154 425.62 104.941C425.62 104.6 425.514 104.408 425.3 104.365C425.13 104.322 424.447 104.301 423.252 104.301C422.228 104.301 421.716 104.088 421.716 103.661C421.716 103.448 421.866 103.341 422.164 103.341C422.463 103.341 422.698 103.362 422.868 103.405L427.604 103.469C428.543 103.469 429.439 103.405 430.292 103.277C430.804 103.192 431.146 103.149 431.316 103.149C431.7 103.149 431.892 103.298 431.892 103.597C431.892 103.896 431.807 104.152 431.636 104.365C431.338 105.09 431.06 105.666 430.804 106.093L420.436 129.069C423.124 126.04 425.364 123.949 427.156 122.797C428.948 121.602 430.826 121.005 432.788 121.005C434.367 121.005 435.647 121.389 436.628 122.157C437.652 122.882 438.164 123.821 438.164 124.973C438.164 126.253 437.674 128.024 436.692 130.285L430.868 143.661C430.143 145.325 429.78 146.328 429.78 146.669C429.78 147.309 430.1 147.629 430.74 147.629C432.148 147.629 434.111 146.562 436.628 144.429C437.268 143.874 437.695 143.597 437.908 143.597C438.122 143.597 438.228 143.725 438.228 143.981Z" fill="white"/>
<path d="M460.435 109.613C460.435 111.405 459.603 112.301 457.939 112.301C457.085 112.301 456.381 112.045 455.827 111.533C455.272 110.978 454.995 110.296 454.995 109.485C454.995 107.736 455.976 106.861 457.939 106.861C459.603 106.861 460.435 107.778 460.435 109.613ZM456.019 121.581C456.019 121.709 455.912 121.965 455.699 122.349C455.4 122.861 454.909 123.906 454.227 125.485L446.867 142.317C445.885 144.578 445.395 145.986 445.395 146.541C445.395 147.693 445.992 148.269 447.187 148.269C447.997 148.269 448.915 147.992 449.939 147.437C451.005 146.84 451.816 146.136 452.371 145.325C452.755 144.813 453.053 144.557 453.267 144.557C453.523 144.557 453.651 144.685 453.651 144.941C453.651 145.453 453.053 146.221 451.859 147.245C450.067 148.781 448.04 149.549 445.779 149.549C444.285 149.549 443.048 149.165 442.067 148.397C441.128 147.629 440.659 146.648 440.659 145.453C440.659 144.386 441.192 142.658 442.259 140.269L448.915 125.421C449.128 124.696 449.384 124.141 449.683 123.757C449.811 123.586 449.875 123.437 449.875 123.309C449.875 122.925 448.936 122.669 447.059 122.541C446.717 122.456 446.547 122.306 446.547 122.093C446.547 121.709 446.717 121.517 447.059 121.517C447.101 121.517 447.421 121.56 448.019 121.645C448.616 121.73 449.576 121.773 450.899 121.773C452.691 121.773 453.949 121.624 454.675 121.325C455.101 121.154 455.4 121.069 455.571 121.069C455.869 121.069 456.019 121.24 456.019 121.581Z" fill="white"/>
<path d="M480.674 125.933C480.674 128.024 479.799 129.069 478.05 129.069C477.452 129.069 476.919 128.856 476.45 128.429C475.98 127.96 475.746 127.448 475.746 126.893C475.746 125.869 476.322 125.357 477.474 125.357L477.986 125.421C478.284 125.549 478.54 125.634 478.754 125.677C479.095 125.677 479.266 125.442 479.266 124.973C479.266 124.29 478.839 123.693 477.986 123.181C477.175 122.626 476.258 122.349 475.234 122.349C472.076 122.349 469.026 124.696 466.082 129.389C463.052 134.21 461.538 138.712 461.538 142.893C461.538 146.477 463.159 148.269 466.402 148.269C468.834 148.269 471.287 146.797 473.762 143.853C474.188 143.341 474.53 143.085 474.786 143.085C474.999 143.085 475.106 143.213 475.106 143.469C475.106 143.981 474.551 144.792 473.442 145.901C471.01 148.333 468.279 149.549 465.25 149.549C462.476 149.549 460.236 148.76 458.53 147.181C456.866 145.56 456.034 143.426 456.034 140.781C456.034 136.301 458.423 131.714 463.202 127.021C467.127 123.138 471.18 121.197 475.362 121.197C476.94 121.197 478.22 121.645 479.202 122.541C480.183 123.394 480.674 124.525 480.674 125.933Z" fill="white"/>
<path d="M508.121 149.331C505.704 149.331 503.589 148.691 501.773 147.413C499.958 146.135 498.539 144.351 497.516 142.063C496.506 139.775 496.001 137.109 496.001 134.066C496.001 131.037 496.506 128.384 497.516 126.108C498.539 123.82 499.964 122.043 501.792 120.777C503.621 119.499 505.749 118.86 508.178 118.86C509.968 118.86 511.457 119.179 512.646 119.819C513.835 120.445 514.787 121.225 515.503 122.158C516.219 123.091 516.775 123.999 517.172 124.881H517.479V109.444H520.911V148.717H517.574V143.252H517.172C516.775 144.147 516.213 145.067 515.484 146.013C514.755 146.946 513.79 147.733 512.589 148.372C511.4 149.011 509.91 149.331 508.121 149.331ZM508.523 146.205C510.428 146.205 512.052 145.687 513.394 144.652C514.736 143.603 515.759 142.165 516.462 140.337C517.178 138.496 517.536 136.387 517.536 134.009C517.536 131.657 517.184 129.579 516.481 127.777C515.778 125.961 514.755 124.542 513.413 123.52C512.071 122.484 510.441 121.966 508.523 121.966C506.555 121.966 504.893 122.503 503.537 123.577C502.195 124.638 501.172 126.076 500.469 127.892C499.779 129.707 499.434 131.746 499.434 134.009C499.434 136.297 499.785 138.362 500.488 140.203C501.192 142.044 502.214 143.507 503.557 144.594C504.912 145.668 506.567 146.205 508.523 146.205Z" fill="white"/>
<path d="M542.542 149.331C539.793 149.331 537.415 148.691 535.408 147.413C533.401 146.122 531.848 144.338 530.748 142.063C529.662 139.775 529.118 137.141 529.118 134.162C529.118 131.196 529.662 128.563 530.748 126.262C531.848 123.948 533.363 122.139 535.293 120.835C537.236 119.518 539.48 118.86 542.024 118.86C543.622 118.86 545.162 119.154 546.645 119.742C548.128 120.317 549.458 121.206 550.634 122.407C551.823 123.596 552.763 125.098 553.453 126.914C554.143 128.716 554.488 130.851 554.488 133.319V135.006H531.477V131.995H550.998C550.998 130.103 550.615 128.403 549.848 126.895C549.094 125.373 548.039 124.172 546.684 123.289C545.341 122.407 543.788 121.966 542.024 121.966C540.157 121.966 538.515 122.465 537.096 123.462C535.677 124.459 534.564 125.776 533.759 127.412C532.966 129.049 532.564 130.838 532.551 132.782V134.584C532.551 136.924 532.954 138.969 533.759 140.721C534.577 142.459 535.734 143.808 537.23 144.767C538.726 145.726 540.496 146.205 542.542 146.205C543.935 146.205 545.156 145.988 546.204 145.553C547.265 145.118 548.154 144.537 548.87 143.808C549.599 143.066 550.148 142.255 550.519 141.373L553.76 142.427C553.312 143.667 552.577 144.811 551.555 145.86C550.545 146.908 549.279 147.752 547.758 148.391C546.249 149.017 544.51 149.331 542.542 149.331Z" fill="white"/>
<path d="M581.8 125.725L578.674 126.607C578.367 125.725 577.933 124.926 577.37 124.21C576.808 123.494 576.073 122.925 575.165 122.503C574.27 122.081 573.158 121.87 571.828 121.87C569.834 121.87 568.198 122.343 566.919 123.289C565.641 124.235 565.002 125.456 565.002 126.952C565.002 128.218 565.436 129.247 566.306 130.039C567.188 130.819 568.543 131.439 570.371 131.9L574.82 132.993C577.287 133.593 579.135 134.546 580.362 135.85C581.602 137.154 582.222 138.79 582.222 140.759C582.222 142.421 581.762 143.897 580.841 145.189C579.921 146.48 578.636 147.496 576.987 148.238C575.35 148.966 573.452 149.331 571.292 149.331C568.415 149.331 566.044 148.685 564.177 147.394C562.311 146.09 561.115 144.211 560.591 141.756L563.87 140.951C564.292 142.702 565.117 144.025 566.344 144.92C567.584 145.815 569.214 146.262 571.234 146.262C573.497 146.262 575.306 145.757 576.661 144.748C578.016 143.725 578.694 142.446 578.694 140.912C578.694 139.723 578.297 138.726 577.505 137.921C576.712 137.103 575.51 136.502 573.899 136.118L569.086 134.968C566.529 134.354 564.637 133.382 563.41 132.053C562.183 130.723 561.569 129.074 561.569 127.105C561.569 125.482 562.01 124.056 562.892 122.829C563.774 121.589 564.989 120.618 566.536 119.914C568.083 119.211 569.847 118.86 571.828 118.86C574.526 118.86 576.68 119.473 578.291 120.701C579.914 121.915 581.084 123.59 581.8 125.725Z" fill="white"/>
<path d="M589.734 148.717V119.262H593.167V148.717H589.734ZM591.479 114.2C590.776 114.2 590.175 113.963 589.677 113.49C589.178 113.005 588.929 112.423 588.929 111.745C588.929 111.068 589.178 110.493 589.677 110.02C590.175 109.534 590.776 109.291 591.479 109.291C592.182 109.291 592.783 109.534 593.282 110.02C593.78 110.493 594.03 111.068 594.03 111.745C594.03 112.423 593.78 113.005 593.282 113.49C592.783 113.963 592.182 114.2 591.479 114.2Z" fill="white"/>
<path d="M613.431 160.376C611.424 160.376 609.666 160.114 608.158 159.59C606.649 159.078 605.377 158.375 604.342 157.48C603.306 156.586 602.501 155.582 601.925 154.47L604.725 152.629C605.147 153.37 605.709 154.099 606.413 154.815C607.129 155.531 608.055 156.125 609.193 156.598C610.344 157.071 611.756 157.308 613.431 157.308C616.039 157.308 618.142 156.656 619.74 155.352C621.351 154.048 622.156 152.022 622.156 149.273V142.638H621.849C621.453 143.533 620.884 144.428 620.143 145.323C619.401 146.205 618.43 146.94 617.228 147.528C616.039 148.116 614.562 148.41 612.798 148.41C610.446 148.41 608.356 147.828 606.528 146.665C604.712 145.502 603.281 143.84 602.232 141.679C601.197 139.506 600.679 136.917 600.679 133.913C600.679 130.934 601.184 128.314 602.194 126.051C603.217 123.788 604.642 122.024 606.47 120.758C608.298 119.493 610.427 118.86 612.856 118.86C614.658 118.86 616.154 119.179 617.343 119.819C618.532 120.445 619.484 121.225 620.2 122.158C620.929 123.091 621.498 123.999 621.907 124.881H622.252V119.262H625.589V149.484C625.589 151.977 625.058 154.029 623.997 155.64C622.936 157.25 621.491 158.439 619.663 159.206C617.835 159.986 615.758 160.376 613.431 160.376ZM613.201 145.284C615.093 145.284 616.71 144.831 618.053 143.923C619.395 143.003 620.424 141.686 621.14 139.973C621.856 138.26 622.214 136.221 622.214 133.855C622.214 131.554 621.862 129.515 621.159 127.738C620.456 125.949 619.433 124.542 618.091 123.52C616.761 122.484 615.131 121.966 613.201 121.966C611.232 121.966 609.57 122.497 608.215 123.558C606.86 124.619 605.837 126.051 605.147 127.853C604.457 129.643 604.112 131.644 604.112 133.855C604.112 136.105 604.463 138.093 605.166 139.819C605.869 141.532 606.898 142.875 608.254 143.846C609.609 144.805 611.258 145.284 613.201 145.284Z" fill="white"/>
<path d="M638.039 130.308V148.717H634.625V119.262H637.943V123.884H638.25C638.94 122.375 640.014 121.167 641.471 120.26C642.942 119.339 644.757 118.879 646.917 118.879C648.899 118.879 650.638 119.294 652.133 120.125C653.642 120.944 654.812 122.152 655.643 123.75C656.486 125.348 656.908 127.31 656.908 129.637V148.717H653.495V129.848C653.495 127.431 652.817 125.52 651.462 124.114C650.12 122.708 648.317 122.005 646.055 122.005C644.508 122.005 643.133 122.337 641.932 123.002C640.73 123.667 639.778 124.625 639.074 125.878C638.384 127.118 638.039 128.595 638.039 130.308Z" fill="white"/>
<path d="M677.805 149.331C675.057 149.331 672.679 148.691 670.672 147.413C668.665 146.122 667.112 144.338 666.012 142.063C664.925 139.775 664.382 137.141 664.382 134.162C664.382 131.196 664.925 128.563 666.012 126.262C667.112 123.948 668.626 122.139 670.557 120.835C672.5 119.518 674.744 118.86 677.288 118.86C678.886 118.86 680.426 119.154 681.909 119.742C683.392 120.317 684.722 121.206 685.898 122.407C687.087 123.596 688.026 125.098 688.717 126.914C689.407 128.716 689.752 130.851 689.752 133.319V135.006H666.741V131.995H686.262C686.262 130.103 685.879 128.403 685.112 126.895C684.357 125.373 683.303 124.172 681.947 123.289C680.605 122.407 679.052 121.966 677.288 121.966C675.421 121.966 673.778 122.465 672.359 123.462C670.94 124.459 669.828 125.776 669.023 127.412C668.23 129.049 667.827 130.838 667.815 132.782V134.584C667.815 136.924 668.217 138.969 669.023 140.721C669.841 142.459 670.998 143.808 672.494 144.767C673.989 145.726 675.76 146.205 677.805 146.205C679.199 146.205 680.42 145.988 681.468 145.553C682.529 145.118 683.418 144.537 684.133 143.808C684.862 143.066 685.412 142.255 685.783 141.373L689.023 142.427C688.576 143.667 687.841 144.811 686.818 145.86C685.808 146.908 684.543 147.752 683.021 148.391C681.513 149.017 679.774 149.331 677.805 149.331Z" fill="white"/>
<path d="M697.274 148.717V119.262H700.591V123.788H700.841C701.429 122.305 702.451 121.11 703.909 120.202C705.379 119.282 707.041 118.821 708.895 118.821C709.176 118.821 709.489 118.828 709.834 118.841C710.18 118.853 710.467 118.866 710.697 118.879V122.35C710.544 122.324 710.275 122.286 709.892 122.235C709.508 122.184 709.093 122.158 708.645 122.158C707.111 122.158 705.743 122.484 704.542 123.136C703.353 123.775 702.413 124.664 701.723 125.802C701.032 126.939 700.687 128.237 700.687 129.694V148.717H697.274Z" fill="white"/>
</svg>
